<svg xmlns="http://www.w3.org/2000/svg" xmlns:xlink="http://www.w3.org/1999/xlink" width="36.469" height="38" viewBox="0 0 36.469 38">
  <defs>
    <style>
      .cls-1 {
        fill: #292929;
        fill-rule: evenodd;
        filter: url(#filter);
      }
    </style>
    <filter id="filter" x="490" y="3530" width="36.469" height="38" filterUnits="userSpaceOnUse">
      <feFlood result="flood" flood-color="#fff"/>
      <feComposite result="composite" operator="in" in2="SourceGraphic"/>
      <feBlend result="blend" in2="SourceGraphic"/>
    </filter>
  </defs>
  <path id="Фигура_1" data-name="Фигура 1" class="cls-1" d="M490,3564.77v-2.25a2.863,2.863,0,0,1,2.845-2.88h16.318c2.231,0,3.382,1.07,3.382,2.66v3.21c0,1.66-1.1,2.49-3.382,2.49H492.631C490.971,3568,490,3566.88,490,3564.77Zm3.221,0.19h16.1a0.218,0.218,0,0,0,.214-0.22v-1.84a0.218,0.218,0,0,0-.214-0.22h-16.1a0.218,0.218,0,0,0-.215.22v1.84A0.218,0.218,0,0,0,493.221,3564.96Zm9.34-22.79a0.21,0.21,0,0,1,.215.21v7.06h0l-0.85,2.31a0.215,0.215,0,0,0,.2.29h1.194a0.206,0.206,0,0,0,.174-0.09l15.54-21.89a0.223,0.223,0,0,1,.284-0.06l3.116,1.9a0.225,0.225,0,0,1,.075.3l-0.918,1.62a0.236,0.236,0,0,0-.028.11v9.54a0.218,0.218,0,0,0,.214.22h0.648a0.209,0.209,0,0,1,.212.24l-0.684,4.89a0.216,0.216,0,0,1-.212.19h-0.178v1.47a0.216,0.216,0,0,0,.116.19,2.422,2.422,0,0,1,.711,3.75,0.216,0.216,0,0,0,.015.31l3.46,3.01a0.217,0.217,0,0,1-.14.38h-0.5a0.234,0.234,0,0,1-.14-0.05l-3.454-3.01a0.2,0.2,0,0,0-.207-0.04,2.844,2.844,0,0,1-.91.16,2.1,2.1,0,0,1-.885-0.2,0.2,0.2,0,0,0-.225.02l-3.747,3.07a0.175,0.175,0,0,1-.135.05h-0.436a0.242,0.242,0,0,1-.149-0.43l3.821-3.14a0.208,0.208,0,0,0,.043-0.28,2.352,2.352,0,0,1-.39-1.35,0.752,0.752,0,1,1,1.5,0,1.17,1.17,0,0,0,.029.27,0.213,0.213,0,0,0,.343.11h0a0.379,0.379,0,0,1,.481.01l0.165,0.14a0.213,0.213,0,0,0,.271.01,0.8,0.8,0,0,0,.278-0.67,0.934,0.934,0,0,0-.8-0.88,0.757,0.757,0,0,1-.627-0.75v-1.94a0.21,0.21,0,0,0-.214-0.21H519.4a0.221,0.221,0,0,1-.21-0.18l-0.965-4.88a0.214,0.214,0,0,1,.21-0.26h0.658a0.218,0.218,0,0,0,.214-0.22v-4.41a0.213,0.213,0,0,0-.4-0.1l-8.589,16.71a0.229,0.229,0,0,0-.024.1v0.62a0.21,0.21,0,0,1-.215.21H507.5a0.217,0.217,0,0,0-.214.22v1.09a0.21,0.21,0,0,1-.215.21H496.226a0.21,0.21,0,0,1-.214-0.21v-1.09a0.218,0.218,0,0,0-.214-0.22h-4.081a0.21,0.21,0,0,1-.214-0.21v-14.01a0.21,0.21,0,0,1,.214-0.21h10.844Zm6.715,3.95-0.009.01,2.508,1.65a0.214,0.214,0,0,0,.316-0.26l-1.192-3.09a0.213,0.213,0,0,0-.373-0.05Zm10.784-2.65a0.218,0.218,0,0,0,.214.22H520.6a0.218,0.218,0,0,0,.214-0.22v-7.29a0.213,0.213,0,0,0-.4-0.1l-0.323.61a0.218,0.218,0,0,0-.025.1v6.68Zm-0.369-8.08,0.922-1.77a0.218,0.218,0,0,0-.072-0.28l-1.437-.95a0.213,0.213,0,0,0-.328.22l0.515,2.72A0.211,0.211,0,0,0,519.691,3535.39Zm-2.319-1.25-1.064,1.87a0.217,0.217,0,0,0,.07.29l1.717,1.12a0.216,0.216,0,0,0,.325-0.23l-0.653-2.99A0.214,0.214,0,0,0,517.372,3534.14Zm-0.12,4.91-1.589-1.05a0.216,0.216,0,0,0-.326.23l0.622,2.86a0.215,0.215,0,0,0,.4.06l0.966-1.82A0.212,0.212,0,0,0,517.252,3539.05Zm-3.238.37-1.207,1.78a0.211,0.211,0,0,0,.061.3l1.815,1.18a0.216,0.216,0,0,0,.325-0.23l-0.608-2.95A0.212,0.212,0,0,0,514.014,3539.42Zm0.378,5.25-2-1.39a0.214,0.214,0,0,0-.321.25l1.14,3.09a0.211,0.211,0,0,0,.391.02l0.862-1.7A0.21,0.21,0,0,0,514.392,3544.67Zm-3.649,6.94,1-1.78a0.213,0.213,0,0,0-.062-0.28l-2.482-1.79a0.215,0.215,0,0,0-.322.26l1.482,3.57A0.211,0.211,0,0,0,510.743,3551.61Zm-1.52,1.43-1.786-3.89a0.214,0.214,0,0,0-.367-0.04l-1.452,2a0.222,0.222,0,0,0,.066.32l3.237,1.89A0.217,0.217,0,0,0,509.223,3553.04Zm-14.5-3.28h4.832a0.21,0.21,0,0,0,.214-0.21v-4.13a0.21,0.21,0,0,0-.214-0.21h-4.832a0.21,0.21,0,0,0-.215.21v4.13A0.21,0.21,0,0,0,494.724,3549.76Zm30.987,12.92h0.537a0.218,0.218,0,0,1,.215.22v1.08a0.218,0.218,0,0,1-.215.22h-11.6a0.218,0.218,0,0,1-.214-0.22v-1.08a0.218,0.218,0,0,1,.214-0.22h1.075a0.218,0.218,0,0,0,.214-0.22v-1.84a0.218,0.218,0,0,0-.214-0.22h-1.075a0.21,0.21,0,0,1-.214-0.21v-1.09a0.218,0.218,0,0,1,.214-0.22h11.6a0.218,0.218,0,0,1,.215.22v1.09a0.21,0.21,0,0,1-.215.21h-1.074a0.218,0.218,0,0,0-.215.22v1.84a0.218,0.218,0,0,0,.215.22h0.537Z" transform="translate(-490 -3530)"/>
</svg>
